PathFileType	4	(X/Y/Z)	C:/Users/opensim2020/Desktop/walking_exp_matlab/subject06_walking22_straight_01.trc	
DataRate	CameraRate	NumFrames	NumMarkers	Units	OrigDataRate	OrigDataStartFrame	OrigNumFrames	
100.00	100.00	4	44	mm	100.00	847	141	
Frame#	Time	LFHD			RFHD			LBHD			RBHD			C7			T10			CLAV			STRN			RBAK			LSHO			LUPA			LELB			LFRM			LWRA			LWRB			LFIN			RSHO			RUPA			RELB			RFRM			RWRA			RWRB			RFIN			LASI			RASI			LPSI			RPSI			LTHI			LKNE			LTIB			LANK			LHEE			LTOE			RTHI			RKNE			RTIB			RANK			RHEE			RTOE			*39			*40			*41			*42			*43			
		X1	Y1	Z1	X2	Y2	Z2	X3	Y3	Z3	X4	Y4	Z4	X5	Y5	Z5	X6	Y6	Z6	X7	Y7	Z7	X8	Y8	Z8	X9	Y9	Z9	X10	Y10	Z10	X11	Y11	Z11	X12	Y12	Z12	X13	Y13	Z13	X14	Y14	Z14	X15	Y15	Z15	X16	Y16	Z16	X17	Y17	Z17	X18	Y18	Z18	X19	Y19	Z19	X20	Y20	Z20	X21	Y21	Z21	X22	Y22	Z22	X23	Y23	Z23	X24	Y24	Z24	X25	Y25	Z25	X26	Y26	Z26	X27	Y27	Z27	X28	Y28	Z28	X29	Y29	Z29	X30	Y30	Z30	X31	Y31	Z31	X32	Y32	Z32	X33	Y33	Z33	X34	Y34	Z34	X35	Y35	Z35	X36	Y36	Z36	X37	Y37	Z37	X38	Y38	Z38	X39	Y39	Z39	X40	Y40	Z40	X41	Y41	Z41	X42	Y42	Z42	X43	Y43	Z43	X44	Y44	Z44	

106	1.050	1359.35107	382.93188	1650.62427	1490.62634	392.79959	1644.47571	1372.28809	246.49049	1607.04285	1501.55615	257.77008	1606.01428	1427.37463	238.26456	1449.86731	1437.87036	190.58359	1121.80591	1429.29333	343.69571	1367.17444	1426.88416	375.81943	1191.26160	1509.69592	156.72552	1284.29822	1266.78503	292.61960	1397.27563	1194.47803	268.48254	1196.16187	1181.12231	248.19275	1086.14429	1155.63318	257.74960	936.49518	1192.92944	309.74860	816.32831	1157.33313	247.40613	817.23627	1154.29871	280.23752	732.51813	1588.67322	299.96185	1404.22034	1685.19263	256.26740	1212.69958	1703.27319	264.12479	1091.09375	1721.13379	290.49503	974.32574	1683.55920	361.07745	844.24420	1729.10229	312.54807	838.58606	1726.38965	359.58905	768.80212	1334.65930	371.49667	962.76270	1555.02563	360.01749	963.09247	1354.86548	212.88763	987.86737	1521.94910	209.97522	983.66809	1281.99060	348.39001	646.87256	1318.97644	382.23724	489.48108	1341.25073	342.47357	234.62608	1395.48267	327.13049	68.68150	1442.55347	284.96207	57.58427	1396.00146	469.79800	40.39677	1608.35791	369.00546	630.35736	1593.65527	412.87982	511.80899	1592.13867	235.06104	337.91913	1552.33594	85.34447	227.36694	1507.12012	43.06210	241.84708	1552.48315	143.37944	79.46288	1424.75000	290.88531	1698.94531												 
107	1.060	1358.96338	396.67963	1652.83057	1490.08264	406.47995	1646.50305	1371.90222	259.98074	1610.03137	1501.18494	271.33713	1608.81873	1426.86511	251.33766	1452.07288	1437.19250	204.30940	1124.20374	1428.59326	357.02673	1369.56494	1426.23621	389.43668	1193.89587	1509.07007	169.53549	1286.62415	1266.43872	305.48434	1400.11426	1193.76123	285.02274	1198.75964	1180.38586	267.68140	1088.22656	1154.94482	281.77219	938.96875	1192.59546	337.03430	820.37085	1156.69409	275.09036	819.45618	1153.36816	310.83310	736.06195	1588.13184	312.59885	1406.90149	1684.24866	268.56863	1215.22290	1701.60034	274.86392	1093.43347	1719.98120	298.61362	976.12030	1683.33997	365.85745	843.56793	1729.17126	317.05902	839.71637	1726.27539	361.65567	768.03217	1333.57788	384.46719	964.47882	1553.86365	374.15039	966.15491	1354.63513	226.34259	990.22308	1521.73535	224.19960	986.66052	1281.95642	356.82584	647.54779	1318.92822	386.11633	489.22443	1341.05725	344.07010	234.79776	1395.42981	327.26462	68.84383	1442.80164	284.88620	58.47495	1395.85669	469.91592	40.21849	1607.57483	388.74432	635.42816	1591.89160	435.76578	518.25378	1591.34131	263.36890	338.40088	1552.57227	118.73978	220.63516	1507.28259	75.10860	231.91646	1554.96558	186.03217	77.60971	1424.44824	304.93240	1701.65381												 
108	1.070	1358.58203	410.18387	1654.86194	1489.67053	420.00259	1648.34534	1371.50647	273.28555	1612.69946	1500.73218	284.73657	1611.26563	1426.41138	264.39856	1454.03027	1436.60083	218.07550	1126.38281	1428.01416	370.24106	1371.89038	1425.46045	403.03531	1196.23999	1508.41833	183.04521	1288.56689	1266.08496	318.22668	1402.71411	1193.27075	301.55579	1201.18530	1179.70056	286.76553	1090.29895	1154.32288	305.72525	941.45978	1191.81531	364.39026	824.64752	1156.21875	302.75107	821.82294	1152.45496	341.70389	739.93964	1587.53491	325.54669	1409.25232	1683.45996	280.72150	1217.57764	1700.30298	285.45959	1095.67944	1719.01953	306.86868	977.86670	1682.99878	369.90781	842.66095	1729.12537	321.69138	840.90234	1726.33545	363.88776	767.58264	1332.31274	397.33054	965.88580	1552.67273	388.34564	968.82892	1354.38501	239.70499	992.31995	1521.46387	238.10895	989.43372	1281.94751	364.94791	648.13629	1318.35339	390.13113	488.94247	1340.86731	345.52829	235.04207	1395.60828	327.28183	69.11575	1442.89014	285.22198	58.72397	1395.73865	470.01093	40.07025	1606.89661	408.21658	640.40930	1590.26733	457.76028	524.46210	1590.32971	291.41013	337.89771	1552.45239	152.47577	212.87004	1506.94189	108.22350	220.73987	1556.80493	229.66693	75.75027	1424.10828	318.67093	1704.04126												 
109	1.080	1358.25647	423.50592	1656.71826	1489.14771	433.21506	1650.01660	1371.02930	286.52802	1614.97571	1500.21899	297.97464	1613.37244	1425.83044	277.57605	1455.83081	1435.99353	231.66386	1128.31909	1427.44299	383.45627	1373.96118	1424.62646	416.63907	1198.24146	1507.92627	196.37445	1290.28284	1265.71594	331.06244	1405.01538	1192.56445	317.74487	1203.44617	1178.84583	305.84634	1092.22424	1153.52307	329.67249	944.00775	1191.39075	391.92596	829.23535	1155.79224	331.00470	824.26892	1151.93018	372.76117	744.08923	1586.93481	338.71655	1411.24402	1682.60730	292.60046	1219.68604	1699.12134	296.13617	1097.58704	1718.15210	314.80005	979.36194	1682.43640	374.02597	841.81140	1729.09802	326.33749	842.09204	1726.83508	366.82614	767.48175	1331.05554	410.22614	967.00836	1551.45020	402.59906	971.13812	1354.10645	253.07124	994.01788	1521.12524	252.59402	991.81934	1281.96228	372.79190	648.63391	1317.77222	393.42661	488.65872	1340.85608	345.67136	235.26524	1395.82544	327.31519	69.41351	1443.06824	285.39633	59.04276	1395.57202	470.06647	39.87642	1606.24011	427.34042	645.08820	1588.74524	478.73965	530.17749	1589.20129	319.40329	336.48746	1552.03076	187.21667	204.05960	1506.20020	142.45775	208.44609	1558.26782	273.59515	73.31842	1423.78015	332.15625	1706.08911												 
